<?xml version="1.0" encoding="utf-8"?>
<svg viewBox="43.231 89.075 54.25 62" xmlns="http://www.w3.org/2000/svg">
  <path d="M 54.856 89.075 C 52.725 89.075 50.981 90.819 50.981 92.95 L 50.981 147.2 C 50.981 149.331 52.725 151.075 54.856 151.075 L 93.606 151.075 C 95.738 151.075 97.481 149.331 97.481 147.2 L 97.481 104.575 L 81.981 89.075 L 54.856 89.075 Z" fill="#E2E5E7"/>
  <path d="M 85.856 104.575 L 97.481 104.575 L 81.981 89.075 L 81.981 100.7 C 81.981 102.831 83.725 104.575 85.856 104.575 Z" fill="#B0B7BD"/>
  <path d="M 97.481 116.2 L 85.856 104.575 L 97.481 104.575 L 97.481 116.2 Z" fill="#CAD1D8"/>
  <path d="M 89.731 139.45 C 89.731 140.516 88.86 141.388 87.794 141.388 L 45.169 141.388 C 44.103 141.388 43.231 140.516 43.231 139.45 L 43.231 120.075 C 43.231 119.009 44.103 118.138 45.169 118.138 L 87.794 118.138 C 88.86 118.138 89.731 119.009 89.731 120.075 L 89.731 139.45 Z" style="fill: rgb(111, 232, 121);"/>
  <path d="M 87.794 141.388 L 50.981 141.388 L 50.981 143.325 L 87.794 143.325 C 88.86 143.325 89.731 142.453 89.731 141.388 L 89.731 139.45 C 89.731 140.516 88.86 141.388 87.794 141.388 Z" fill="#CAD1D8"/>
  <text style="fill: rgb(255, 255, 255); font-family: Roboto; font-weight: 700; white-space: pre; font-size: 15px;" x="49.791" y="134.759">.xlsx</text>
</svg>